<svg height="512pt" viewBox="0 0 512.02065 512" width="512pt" xmlns="http://www.w3.org/2000/svg"><path d="m366.949219 179.210938c0-9.414063-7.652344-17.066407-17.066407-17.066407h-17.066406v34.132813h17.066406c9.40625 0 17.066407-7.65625 17.066407-17.066406zm0 0"/><path d="m162.152344 196.277344h17.066406c9.410156 0 17.066406-7.65625 17.066406-17.066406 0-9.414063-7.65625-17.066407-17.066406-17.066407h-17.066406zm0 0"/><path d="m503.484375 460.808594h-29.636719c4.785156-7.824219 13.773438-17.066406 29.636719-17.066406 3.234375 0 6.1875-1.824219 7.636719-4.71875 1.441406-2.890626 1.136718-6.347657-.8125-8.933594-9.257813-12.355469-33.933594-29.609375-66.558594-17.089844v-20.457031c0-4.71875-3.824219-8.53125-8.53125-8.53125-.445312 0-3.714844.066406-8.535156.921875v-77.722656c0-2.851563-1.425782-5.511719-3.796875-7.101563l-16.9375-11.289063 18.242187-18.242187c1.605469-1.605469 2.5-3.765625 2.5-6.035156v-102.398438c0-89.40625-72.730468-162.1328122-162.132812-162.1328122-30.683594 0-59.304688 8.7265622-83.796875 23.6015622l36.128906 36.128907h47.667969c4.710937 0 8.535156 3.816406 8.535156 8.535156s-3.824219 8.53125-8.535156 8.53125h-42.667969v25.601562c0 4.71875-3.820313 8.535156-8.53125 8.535156s-8.535156-3.816406-8.535156-8.535156v-30.601562l-38.414063-38.414063c-38.800781 29.652344-63.984375 76.253907-63.984375 128.75v128c0 1.550781.417969 3.0625 1.21875 4.394531l21.410157 35.695313-18.832032 12.550781c-2.371094 1.585938-3.796875 4.25-3.796875 7.101563v46.402343c-20.335937-15.171874-40.21875-20.453124-40.601562-20.546874-4.027344-1.015626-8.191407 1.015624-9.875 4.820312-1.679688 3.789062-.382813 8.253906 3.074219 10.546875 11.765624 7.84375 11.296874 21.050781 9.128906 30.199219-22.613282-13.019532-48.714844-1.925782-60.722656 7.074218-2.6875 2.015626-3.933594 5.429688-3.199219 8.703126.734375 3.285156 3.335937 5.828124 6.628906 6.496093 7.367187 1.492188 25.542969 7.347657 32.761719 17.238281h-31.085938c-4.710937 0-8.535156 3.8125-8.535156 8.53125v34.132813c0 4.71875 3.824219 8.535156 8.535156 8.535156h494.929688c4.710937 0 8.535156-3.816406 8.535156-8.535156v-34.132813c.015625-4.726562-3.804688-8.542968-8.515625-8.542968zm-110.933594-32.050782c6.136719-11.355468 16.308594-20.324218 28.679688-24.796874 1.9375-.683594 3.804687-1.261719 5.453125-1.65625v24.371093c0 3.074219 1.65625 5.90625 4.328125 7.425781 2.667969 1.519532 5.953125 1.476563 8.589843-.113281 19.945313-11.960937 35.089844-9 44.792969-3.785156-15.90625 6.3125-25.335937 19.90625-29.703125 30.605469h-62.140625zm-76.800781-223.949218v-51.199219c0-4.71875 3.824219-8.53125 8.535156-8.53125h25.597656c18.824219 0 34.132813 15.308594 34.132813 34.132813 0 18.824218-15.308594 34.132812-34.132813 34.132812h-17.066406v25.601562c0 4.71875-3.824218 8.53125-8.53125 8.53125-4.710937 0-8.535156-3.8125-8.535156-8.53125zm-76.800781-42.664063c-4.710938 0-8.53125-3.816406-8.53125-8.535156s3.820312-8.53125 8.53125-8.53125h51.203125c4.707031 0 8.53125 3.8125 8.53125 8.53125s-3.824219 8.535156-8.53125 8.535156h-17.070313v68.265625h17.070313c4.707031 0 8.53125 3.816406 8.53125 8.535156s-3.824219 8.53125-8.53125 8.53125h-51.203125c-4.710938 0-8.53125-3.8125-8.53125-8.53125s3.820312-8.535156 8.53125-8.535156h17.066406v-68.265625zm-20.480469 232.105469 23.296875 17.476562 5.878906-29.390624c.523438-2.582032 2.195313-4.785157 4.550781-5.953126l26.496094-13.253906-13.253906-26.496094c-2.105469-4.214843-.402344-9.34375 3.816406-11.453124 4.207032-2.089844 9.34375-.398438 11.449219 3.816406l13.253906 26.496094 26.496094-13.253907c4.207031-2.097656 9.34375-.410156 11.449219 3.816407 2.109375 4.214843.402344 9.34375-3.8125 11.449218l-64.53125 32.265625-14.207032 71.03125h-17.40625l6.109376-30.53125-29.832032-22.375c-3.773437-2.824219-4.53125-8.175781-1.707031-11.9375 2.839844-3.773437 8.183594-4.523437 11.953125-1.707031zm-73.386719-240.640625c0-4.71875 3.824219-8.53125 8.535157-8.53125h25.601562c18.824219 0 34.132812 15.308594 34.132812 34.132813 0 13.601562-8.054687 25.285156-19.601562 30.761718l17.894531 23.859375c2.832031 3.761719 2.0625 9.113281-1.707031 11.9375-1.535156 1.152344-3.335938 1.707031-5.113281 1.707031-2.59375 0-5.152344-1.175781-6.832031-3.414062l-23.042969-30.71875h-12.796875v25.601562c0 4.71875-3.824219 8.53125-8.535156 8.53125-4.710938 0-8.535157-3.8125-8.535157-8.53125zm-114.183593 280.140625c9.472656-2.585938 21.308593-2.550781 31.34375 7.492188 1.945312 1.945312 4.691406 2.851562 7.398437 2.390624 2.703125-.445312 5.042969-2.160156 6.261719-4.609374 4.164062-8.34375 8.210937-22.59375 5.660156-36.351563.144531.777344 4.820312 2.96875 5.613281 3.5 2.046875 1.363281 4.046875 2.796875 6 4.308594 3.804688 2.945312 7.421875 6.152343 10.785157 9.589843 6.476562 6.632813 11.878906 14.304688 15.964843 22.625 2.671875 5.441407 4.660157 11.101563 6.113281 16.980469.09375.375.1875.75.269532 1.125h-67.753906c-3.839844-13.277343-16.324219-21.84375-27.65625-27.050781zm464.050781 61.195312h-477.867188v-17.066406h477.867188zm0 0"/></svg>